<svg width="148" height="148" viewBox="0 0 148 148" fill="none" xmlns="http://www.w3.org/2000/svg"><path d="M148 74c0 40.9-33.1 74-74 74S0 114.9 0 74 33.1 0 74 0s74 33.1 74 74Z" fill="#F0F1F2"/><mask id="b" style="mask-type:alpha" maskUnits="userSpaceOnUse" x="2" y="0" width="146" height="148"><path d="M147.999 74c0 40.9-33.099 74-74 74H2.871V0H74c40.9 0 73.999 33.1 73.999 74Z" fill="#fff"/></mask><g filter="url(#a)" mask="url(#b)"><path d="M145.012 18H17.359C15.512 18 14 19.8 14 22v104c0 2.2 1.512 4 3.36 4h127.652c1.848 0 3.36-1.8 3.36-4V22c0-2.2-1.512-4-3.36-4Z" fill="#fff"/></g><path fill-rule="evenodd" clip-rule="evenodd" d="m33.057 104.589 13.717 5.519 12.365 7.264 1.682-27.764s15.14 3.875 17.468-.255c1.931-3.427-.575-5.608.665-6.188.734-.344 1.963-2.732.44-3.922 1.116-.498.937-2.285.738-2.836-.291-.807-1.05-.52-.521-1.87.402-1.028 2.284-1.032 2.217-3.086-.065-2.054-5.785-7.349-6.653-9.232-.55-1.191-.897-6.752-1.993-9.068-1.908-4.033-5.19-6.915-8.586-8.578a16.964 16.964 0 0 0-5.457-1.622c-1.918-.221-4.007-.382-5.93-.27-4.681.277-9.129 2.463-12.742 5.407-3.075 2.509-5.737 5.68-7.022 9.462-1.598 4.7-.885 10.085 1.633 14.348 1.726 2.922 10.825 6.171 11.689 9.465l-13.71 23.226Z" fill="#975D48"/><path fill-rule="evenodd" clip-rule="evenodd" d="M19.371 130h52s-13.5-39-34.5-32.5l-17.5 32.5Z" fill="#181C21"/><path fill-rule="evenodd" clip-rule="evenodd" d="M24.372 91.502c6.5 4 13.525 8.878 32.786 8.878V84.066c0-3.763-3.71-9.226-4.856-11.55-.662-1.345-1.158-2.973-.46-4.299.353-.665.961-1.157 1.57-1.608 3.4-2.515 7.307-4.423 10.2-7.508 2.873-3.064 4.536-7.214 4.628-11.396 5.151 3.124 6.252 10.666 6.264 10.702 1.31-1.154 2.848-2.444 2.848-5.084 0-9.851-23.343-24.19-42.274-8.683C16.35 59.978 24.372 91.502 24.372 91.502Z" fill="#F0F1F2"/><path d="M17 18c-2.2 0-4 1.8-4 4v104c0 2.2 1.8 4 4 4h76V18H17Z" fill="#208B86"/><path d="M13 81.488V22c0-2.2 1.8-4 4-4h76v66.8c-9.832 9.878-23.443 15.993-38.482 15.993-16.655 0-31.559-7.5-41.518-19.305Z" fill="#5AB2AC"/><path d="M33 114H19v-6c0-3.3 2.7-6 6-6h8v12Z" fill="#CD5747"/><path d="M93 76H29v38h64V76Z" fill="#EC856F"/><path d="M93 83H49v31h44V83Z" fill="#DE6A5A"/><path d="M93 72H29v4h64v-4Z" fill="#CD5747"/><path d="M93 46H25v14h68V46ZM25 66v6h68v-6H25Z" fill="#E8E9EB"/><path d="M93 62H25v4h68v-4Zm0-2H25v2h68v-2Z" fill="#9FA5AB"/><path d="M93 36H19v4h74v-4Z" fill="#E8E9EB"/><path d="M22 43h71v-3H19l3 3Zm3 3h68v-3H22l3 3Z" fill="#9FA5AB"/><path d="M50.34 51H93v4H50.34c-.737 0-1.34-.61-1.34-1.356v-1.288c0-.746.603-1.356 1.34-1.356Z" fill="#828A91"/><path d="M63 87h-8v20h8V87Zm16 0H67v27h12V87Zm14 0H83v27h10V87Z" fill="#F0F1F2"/><mask id="c" style="mask-type:alpha" maskUnits="userSpaceOnUse" x="13" y="18" width="80" height="83"><path d="M13 81.488V22c0-2.2 1.8-4 4-4h76v66.8c-9.832 9.878-23.443 15.993-38.482 15.993-16.655 0-31.559-7.5-41.518-19.305Z" fill="#B6BABF"/></mask><g mask="url(#c)" fill="#D2D5D9"><path d="M63 87h-8v20h8V87Zm16 0H67v27h12V87Zm14 0H83v27h10V87Z"/></g><path d="M143.371 70h-34c-1.1 0-2-.9-2-2s.9-2 2-2h34c1.1 0 2 .9 2 2s-.9 2-2 2Zm0-10h-34c-1.1 0-2-.9-2-2s.9-2 2-2h34c1.1 0 2 .9 2 2s-.9 2-2 2Z" fill="#E8E9EB"/><path d="M132.371 106h-20c-2.8 0-5-2.2-5-5s2.2-5 5-5h20c2.8 0 5 2.2 5 5s-2.2 5-5 5Z" fill="#108060"/><path d="M139.756 40a73.373 73.373 0 0 1 2.772 6h-32.157c-1.7 0-3-1.3-3-3s1.3-3 3-3h29.385Z" fill="#E8E9EB"/><defs><filter id="a" x="9" y="14" width="144.371" height="122" filterUnits="userSpaceOnUse" color-interpolation-filters="sRGB"><feFlood flood-opacity="0" result="BackgroundImageFix"/><feColorMatrix in="SourceAlpha" values="0 0 0 0 0 0 0 0 0 0 0 0 0 0 0 0 0 0 127 0" result="hardAlpha"/><feOffset dy="1"/><feGaussianBlur stdDeviation="2.5"/><feColorMatrix values="0 0 0 0 0 0 0 0 0 0 0 0 0 0 0 0 0 0 0.3 0"/><feBlend in2="BackgroundImageFix" result="effect1_dropShadow_6427_254804"/><feBlend in="SourceGraphic" in2="effect1_dropShadow_6427_254804" result="shape"/></filter></defs></svg>