<svg width="10" height="10" viewBox="0 0 10 10" fill="none" xmlns="http://www.w3.org/2000/svg">
<path d="M4.96429 6.63839L6.63839 4.96429M6.63839 4.96429L4.96429 3.29018M6.63839 4.96429L0.5 4.96429M0.5 7.75446C0.5 8.27449 0.5 8.5345 0.584956 8.7396C0.69823 9.01307 0.915629 9.23035 1.1891 9.34363C1.3942 9.42858 1.65408 9.42857 2.17411 9.42857H7.64286C8.26792 9.42857 8.58034 9.42855 8.81908 9.30691C9.02908 9.19991 9.20004 9.02922 9.30705 8.81921C9.42869 8.58047 9.42857 8.26789 9.42857 7.64283V2.28569C9.42857 1.66063 9.42869 1.34814 9.30705 1.1094C9.20004 0.899396 9.02908 0.728646 8.81908 0.621645C8.58034 0.5 8.26792 0.5 7.64286 0.5H2.17411C1.65408 0.5 1.3942 0.5 1.1891 0.584956C0.915629 0.69823 0.69823 0.915493 0.584956 1.18896C0.5 1.39406 0.5 1.65408 0.5 2.1741" stroke="#1A75BB" stroke-linecap="round" stroke-linejoin="round"/>
</svg>
