<svg width="16" height="16" viewBox="0 0 16 16" fill="none" xmlns="http://www.w3.org/2000/svg">
<path fill-rule="evenodd" clip-rule="evenodd" d="M14.75 2.74981L12.3672 0.750031L14.75 2.74981Z" fill="#F48283"/>
<path fill-rule="evenodd" clip-rule="evenodd" d="M3.13277 0.750125L0.75 2.74991L3.13277 0.750125Z" fill="#F48283"/>
<path d="M8.49859 4.63892C8.49859 4.22471 8.1628 3.88892 7.74859 3.88892C7.33437 3.88892 6.99859 4.22471 6.99859 4.63892H7.74859H8.49859ZM7.74859 8.52781H6.99859C6.99859 8.94202 7.33437 9.27781 7.74859 9.27781V8.52781ZM11.6367 9.27781C12.0509 9.27781 12.3867 8.94202 12.3867 8.52781C12.3867 8.1136 12.0509 7.77781 11.6367 7.77781V8.52781V9.27781ZM14.2679 3.3243C14.5851 3.59058 15.0582 3.54924 15.3245 3.23196C15.5908 2.91468 15.5494 2.44161 15.2321 2.17533L14.75 2.74981L14.2679 3.3243ZM12.8494 0.175545C12.5321 -0.0907378 12.059 -0.0493968 11.7927 0.267883C11.5265 0.585162 11.5678 1.05823 11.8851 1.32452L12.3672 0.750031L12.8494 0.175545ZM3.61492 1.32461C3.9322 1.05833 3.97354 0.585257 3.70725 0.267978C3.44097 -0.0493019 2.9679 -0.0906429 2.65062 0.17564L3.13277 0.750125L3.61492 1.32461ZM0.267852 2.17542C-0.0494273 2.44171 -0.0907683 2.91478 0.175515 3.23206C0.441797 3.54934 0.914868 3.59068 1.23215 3.32439L0.75 2.74991L0.267852 2.17542ZM7.74859 4.63892H6.99859V8.52781H7.74859H8.49859V4.63892H7.74859ZM7.74859 8.52781V9.27781H11.6367V8.52781V7.77781H7.74859V8.52781ZM7.74859 14.75V14C4.7272 14 2.27762 11.5502 2.27762 8.52781H1.52762H0.777621C0.777621 12.3783 3.89849 15.5 7.74859 15.5V14.75ZM1.52762 8.52781H2.27762C2.27762 5.50544 4.7272 3.05559 7.74859 3.05559V2.30559V1.55559C3.89849 1.55559 0.777621 4.6773 0.777621 8.52781H1.52762ZM7.74859 2.30559V3.05559C10.77 3.05559 13.2196 5.50544 13.2196 8.52781H13.9696H14.7196C14.7196 4.6773 11.5987 1.55559 7.74859 1.55559V2.30559ZM13.9696 8.52781H13.2196C13.2196 11.5502 10.77 14 7.74859 14V14.75V15.5C11.5987 15.5 14.7196 12.3783 14.7196 8.52781H13.9696ZM14.75 2.74981L15.2321 2.17533L12.8494 0.175545L12.3672 0.750031L11.8851 1.32452L14.2679 3.3243L14.75 2.74981ZM3.13277 0.750125L2.65062 0.17564L0.267852 2.17542L0.75 2.74991L1.23215 3.32439L3.61492 1.32461L3.13277 0.750125Z" fill="#F48283"/>
</svg>
