<svg width="47" height="47" viewBox="0 0 47 47" fill="none" xmlns="http://www.w3.org/2000/svg">
<path d="M23.2488 46.4976C36.0888 46.4976 46.4976 36.0888 46.4976 23.2488C46.4976 10.4089 36.0888 0 23.2488 0C10.4088 0 0 10.4089 0 23.2488C0 36.0888 10.4088 46.4976 23.2488 46.4976Z" fill="#ECECEC"/>
<path fill-rule="evenodd" clip-rule="evenodd" d="M32.672 13.8238C30.5381 11.6899 27.0786 11.6899 24.9447 13.8237L22.7201 16.0482C22.3968 16.3715 21.8726 16.3715 21.5492 16.0482C21.2259 15.7249 21.2259 15.2007 21.5492 14.8774L23.7738 12.6529C26.5544 9.87241 31.0623 9.87255 33.8428 12.653C36.6232 15.4333 36.624 19.9412 33.8434 22.7218C33.8434 22.7218 33.8434 22.7218 33.8434 22.7218L31.6191 24.9463C31.2958 25.2697 30.7716 25.2697 30.4482 24.9464C30.1249 24.6231 30.1249 24.0989 30.4482 23.7756L32.6725 21.5511C34.8063 19.4173 34.806 15.9577 32.672 13.8238ZM28.2819 18.2146C28.6052 18.5379 28.6052 19.0621 28.2819 19.3854L19.3835 28.2835C19.0602 28.6068 18.536 28.6068 18.2127 28.2835C17.8894 27.9602 17.8894 27.436 18.2127 27.1127L27.1111 18.2146C27.4344 17.8913 27.9586 17.8913 28.2819 18.2146ZM16.0472 21.5512C16.3706 21.8745 16.3706 22.3987 16.0472 22.722L13.8226 24.9466C11.6887 27.0805 11.6883 30.5401 13.8222 32.6739C15.9561 34.8077 19.4163 34.8077 21.5502 32.6739L23.7737 30.4495C24.097 30.1261 24.6212 30.126 24.9446 30.4493C25.2679 30.7725 25.268 31.2967 24.9448 31.6201L22.7211 33.8446C19.9406 36.625 15.4319 36.6251 12.6513 33.8447C9.87071 31.0641 9.87135 26.5561 12.6518 23.7758L14.8764 21.5512C15.1997 21.2279 15.7239 21.2279 16.0472 21.5512Z" fill="#868686"/>
<path fill-rule="evenodd" clip-rule="evenodd" d="M23.5141 12.3918C26.4386 9.46741 31.1798 9.46756 34.1042 12.3919C37.0285 15.3161 37.0294 20.0573 34.1049 22.9819C34.1049 22.9819 34.1049 22.9819 34.1049 22.9819L31.8805 25.2064C31.4133 25.6737 30.6558 25.6737 30.1885 25.2065C29.7213 24.7393 29.7212 23.9818 30.1884 23.5145L32.4128 21.29C34.4026 19.3002 34.4024 16.074 32.4122 14.0839C30.4222 12.0939 27.1961 12.0939 25.2061 14.0838L22.9815 16.3083C22.5143 16.7755 21.7567 16.7755 21.2895 16.3083C20.8223 15.8411 20.8223 15.0836 21.2895 14.6163L23.5141 12.3918ZM33.5837 22.4607C36.2203 19.8241 36.2196 15.5496 33.5831 12.9131C30.9465 10.2765 26.6719 10.2764 24.0353 12.913L21.8107 15.1375C21.6313 15.3169 21.6313 15.6078 21.8107 15.7871C21.9901 15.9665 22.2809 15.9665 22.4603 15.7871L24.6849 13.5626C26.9627 11.2849 30.6556 11.285 32.9334 13.5627C35.2113 15.8405 35.2117 19.5334 32.934 21.8111C32.934 21.8111 32.934 21.8111 32.934 21.8111L30.7096 24.0357C30.5302 24.2151 30.5302 24.5059 30.7097 24.6853C30.8891 24.8647 31.1799 24.8647 31.3593 24.6853L33.5837 22.4607ZM26.8513 17.9535C27.3186 17.4863 28.0761 17.4863 28.5433 17.9535C29.0106 18.4207 29.0106 19.1783 28.5433 19.6455L19.645 28.5436C19.1777 29.0108 18.4202 29.0108 17.953 28.5436C17.4857 28.0764 17.4857 27.3189 17.953 26.8516L26.8513 17.9535ZM28.0222 18.4747C27.8428 18.2953 27.5519 18.2953 27.3725 18.4747L18.4741 27.3728C18.2947 27.5522 18.2947 27.8431 18.4741 28.0224C18.6535 28.2018 18.9444 28.2018 19.1238 28.0224L28.0222 19.1243C28.2016 18.9449 28.2016 18.6541 28.0222 18.4747ZM14.6167 21.2901C15.0839 20.8229 15.8414 20.8229 16.3087 21.2901C16.7759 21.7574 16.7759 22.5149 16.3087 22.9821L14.0841 25.2067C12.094 27.1967 12.0937 30.423 14.0836 32.4128C16.0736 34.4027 19.3004 34.4027 21.2904 32.4128C21.2904 32.4128 21.2904 32.4128 21.2904 32.4128L23.5139 30.1885C23.9811 29.7211 24.7386 29.721 25.2059 30.1881C25.6733 30.6553 25.6734 31.4128 25.2063 31.8801L22.9826 34.1046C20.0582 37.029 15.3161 37.0291 12.3916 34.1047C9.46701 31.1803 9.46773 26.4389 12.3921 23.5147L14.6167 21.2901ZM15.7875 21.8113C15.6081 21.6319 15.3172 21.6319 15.1378 21.8113L12.9132 24.0359C10.2767 26.6724 10.2761 30.947 12.9128 33.5836C15.5494 36.2201 19.8248 36.22 22.4614 33.5835L24.685 31.359C24.8644 31.1796 24.8643 30.8888 24.6849 30.7094C24.5054 30.53 24.2146 30.5301 24.0352 30.7095L21.8117 32.9339C19.5338 35.2117 15.8403 35.2117 13.5624 32.9339C11.2847 30.6562 11.285 26.9633 13.5629 24.6855L15.7875 22.461C15.9669 22.2816 15.9669 21.9907 15.7875 21.8113Z" fill="#868686"/>
</svg>
