<svg width="46" height="46" viewBox="0 0 46 46" fill="none" xmlns="http://www.w3.org/2000/svg">
<path d="M22.772 0C10.1951 0 0 10.1951 0 22.772C0 35.349 10.1951 45.5441 22.772 45.5441C35.349 45.5441 45.5441 35.349 45.5441 22.772C45.5441 10.1951 35.349 0 22.772 0ZM33.2168 32.8457C32.8086 33.5171 31.9348 33.7262 31.2669 33.318C25.9197 30.049 19.1892 29.3102 11.2612 31.1218C10.4988 31.2972 9.73631 30.8182 9.56089 30.0557C9.38546 29.2933 9.86114 28.5308 10.627 28.3554C19.3006 26.3717 26.7428 27.2253 32.7445 30.8924C33.4159 31.3006 33.625 32.1777 33.2168 32.8457ZM36.0035 26.645C35.4873 27.4817 34.3976 27.7414 33.5609 27.2286C27.4412 23.467 18.1097 22.3773 10.8699 24.5736C9.93198 24.857 8.94014 24.3273 8.65338 23.3894C8.36999 22.4516 8.89965 21.4597 9.83752 21.1763C18.1097 18.6663 28.3892 19.8808 35.4198 24.2025C36.2531 24.7186 36.5162 25.8117 36.0035 26.645ZM36.243 20.1879C28.9019 15.8291 16.794 15.4277 9.78692 17.553C8.66012 17.8938 7.47261 17.2595 7.13187 16.1327C6.79113 15.0059 7.42537 13.8184 8.55217 13.4743C16.5949 11.0318 29.968 11.5041 38.419 16.5207C39.4311 17.1212 39.7617 18.4302 39.1646 19.4389C38.5607 20.4544 37.2551 20.7884 36.243 20.1879Z" fill="#ECECEC"/>
<path d="M33.2111 32.8474C32.8029 33.5188 31.9291 33.7279 31.2612 33.3197C25.9139 30.0507 19.1835 29.3118 11.2555 31.1235C10.4931 31.2989 9.73061 30.8199 9.55518 30.0574C9.37976 29.295 9.85544 28.5325 10.6213 28.3571C19.2949 26.3734 26.7371 27.2269 32.7388 30.8941C33.4102 31.3023 33.6193 32.1794 33.2111 32.8474Z" fill="#868686"/>
<path d="M35.9963 26.6491C35.4801 27.4857 34.3904 27.7455 33.5538 27.2327C27.434 23.4711 18.1025 22.3814 10.8627 24.5776C9.92481 24.861 8.93296 24.3314 8.6462 23.3935C8.36281 22.4556 8.89248 21.4638 9.83035 21.1804C18.1025 18.6704 28.382 19.8849 35.4126 24.2065C36.2459 24.7227 36.5091 25.8158 35.9963 26.6491Z" fill="#868686"/>
<path d="M36.2342 20.1924C28.8932 15.8337 16.7852 15.4322 9.77812 17.5576C8.65133 17.8983 7.46381 17.2641 7.12307 16.1373C6.78234 15.0105 7.41658 13.823 8.54337 13.4789C16.5861 11.0364 29.9592 11.5087 38.4102 16.5253C39.4223 17.1258 39.7529 18.4347 39.1558 19.4435C38.5519 20.4589 37.2463 20.7929 36.2342 20.1924Z" fill="#868686"/>
</svg>
