<svg width="27" height="27" viewBox="0 0 27 27" fill="none" xmlns="http://www.w3.org/2000/svg">
<path d="M16.5004 24.5886L16.5139 24.5981C17.685 25.3438 19.0755 25.6677 20.4556 25.5161C21.8357 25.3645 23.1227 24.7466 24.1041 23.7644L24.9566 22.9118C25.1456 22.723 25.2954 22.4988 25.3977 22.252C25.4999 22.0052 25.5526 21.7407 25.5526 21.4736C25.5526 21.2065 25.4999 20.942 25.3977 20.6952C25.2954 20.4484 25.1456 20.2242 24.9566 20.0354L21.3608 16.4419C21.172 16.2529 20.9478 16.103 20.701 16.0008C20.4543 15.8985 20.1898 15.8459 19.9227 15.8459C19.6556 15.8459 19.3911 15.8985 19.1444 16.0008C18.8976 16.103 18.6735 16.2529 18.4847 16.4419C18.1034 16.823 17.5864 17.0372 17.0473 17.0372C16.5082 17.0372 15.9911 16.823 15.6099 16.4419L9.8603 10.6903C9.47916 10.309 9.26504 9.79196 9.26504 9.25281C9.26504 8.71365 9.47916 8.19657 9.8603 7.81527C10.0492 7.62644 10.1991 7.40224 10.3014 7.15546C10.4036 6.90868 10.4562 6.64418 10.4562 6.37705C10.4562 6.10992 10.4036 5.84542 10.3014 5.59864C10.1991 5.35187 10.0492 5.12766 9.8603 4.93883L6.26581 1.34532C5.88455 0.964138 5.36752 0.75 4.82841 0.75C4.28931 0.75 3.77228 0.964138 3.39102 1.34532L2.53713 2.19795C1.55527 3.1796 0.937658 4.46688 0.786344 5.84708C0.635029 7.22729 0.959068 8.61782 1.70492 9.78892L1.71305 9.80248C5.65206 15.631 10.6717 20.6503 16.5004 24.5886V24.5886Z" stroke="#1A75BB" stroke-width="1.5" stroke-linecap="round" stroke-linejoin="round"/>
</svg>
