<svg width="22" height="22" viewBox="0 0 22 22" fill="none" xmlns="http://www.w3.org/2000/svg">
<g clip-path="url(#clip0_2493_6816)">
<path d="M20.1954 5.38184C18.9669 5.38184 17.8333 4.97483 16.923 4.28823C15.879 3.50114 15.1289 2.34656 14.8641 1.01582C14.7985 0.687025 14.7632 0.347717 14.7598 0H11.2502V9.58976L11.246 14.8425C11.246 16.2468 10.3315 17.4376 9.06387 17.8563C8.69597 17.9779 8.29864 18.0355 7.88491 18.0128C7.35682 17.9837 6.86194 17.8244 6.43182 17.5671C5.51648 17.0196 4.89589 16.0265 4.87907 14.8904C4.85258 13.1149 6.28802 11.6672 8.06235 11.6672C8.41259 11.6672 8.74895 11.7244 9.06387 11.8283V9.20714V8.2649C8.73171 8.21571 8.39366 8.19006 8.05183 8.19006C6.10975 8.19006 4.29338 8.99734 2.99501 10.4517C2.01367 11.5508 1.42503 12.953 1.33421 14.4233C1.21522 16.3549 1.92201 18.191 3.29269 19.5457C3.49409 19.7446 3.70558 19.9292 3.92674 20.0995C5.10192 21.0039 6.53861 21.4941 8.05183 21.4941C8.39366 21.4941 8.73171 21.4689 9.06387 21.4197C10.4774 21.2103 11.7817 20.5632 12.811 19.5457C14.0757 18.2957 14.7745 16.6362 14.7821 14.8698L14.764 7.02582C15.3673 7.49126 16.027 7.8764 16.7351 8.17535C17.8363 8.63995 19.0039 8.8754 20.2055 8.87498V6.3266V5.38099C20.2064 5.38184 20.1963 5.38184 20.1954 5.38184Z" fill="#868686"/>
</g>
<defs>
<clipPath id="clip0_2493_6816">
<rect width="21.5273" height="21.5273" fill="white"/>
</clipPath>
</defs>
</svg>
