<svg width="10" height="10" viewBox="0 0 10 10" fill="none" xmlns="http://www.w3.org/2000/svg">
<path d="M6.53728 5.22943L6.34622 4.93594L6.33668 4.94262L6.53728 5.22943ZM6.53728 4.58434L6.32975 4.86618L6.34536 4.87768L6.36215 4.88738L6.53728 4.58434ZM3.95193 2.68061L4.15946 2.39878L4.14958 2.39151L4.13922 2.38494L3.95193 2.68061ZM3.40993 2.96496L3.75998 2.96395L3.75985 2.95782L3.40993 2.96496ZM3.42077 6.70451L3.07077 6.70553L3.0708 6.71543L3.07139 6.72531L3.42077 6.70451ZM3.98264 7.01614L4.15212 7.32237L4.16819 7.31348L4.18324 7.30295L3.98264 7.01614ZM4.8501 9.35001V9.00001C2.55812 9.00001 0.700098 7.14199 0.700098 4.85001H0.350098H9.76622e-05C9.76622e-05 7.52859 2.17152 9.70001 4.8501 9.70001V9.35001ZM9.3501 4.85001H9.0001C9.0001 7.14199 7.14208 9.00001 4.8501 9.00001V9.35001V9.70001C7.52868 9.70001 9.7001 7.52859 9.7001 4.85001H9.3501ZM4.8501 0.350006V0.700006C7.14208 0.700006 9.0001 2.55802 9.0001 4.85001H9.3501H9.7001C9.7001 2.17143 7.52868 6.10948e-06 4.8501 6.10948e-06V0.350006ZM4.8501 0.350006V6.10948e-06C2.17152 6.10948e-06 9.76622e-05 2.17143 9.76622e-05 4.85001H0.350098H0.700098C0.700098 2.55802 2.55812 0.700006 4.8501 0.700006V0.350006ZM6.53728 5.22943L6.72823 5.52275C6.92214 5.39651 7.13519 5.19118 7.13479 4.89709C7.13438 4.59514 6.91141 4.39632 6.7124 4.28131L6.53728 4.58434L6.36215 4.88738C6.38987 4.9034 6.41009 4.91762 6.42433 4.92923C6.43864 4.94088 6.4453 4.94858 6.44741 4.95127C6.44939 4.95379 6.44606 4.95021 6.44221 4.94012C6.43814 4.92946 6.43481 4.91488 6.43479 4.89804C6.43477 4.88131 6.43801 4.86807 6.44104 4.85985C6.44386 4.85218 6.44566 4.85111 6.44179 4.85634C6.43784 4.86167 6.42925 4.87186 6.41321 4.8861C6.39726 4.90028 6.37542 4.91717 6.34633 4.9361L6.53728 5.22943ZM6.53728 4.58434L6.74481 4.30251L4.15946 2.39878L3.95193 2.68061L3.7444 2.96245L6.32975 4.86618L6.53728 4.58434ZM3.95193 2.68061L4.13922 2.38494C3.94056 2.2591 3.67447 2.19491 3.42965 2.30922C3.16549 2.43256 3.05446 2.7008 3.06 2.9721L3.40993 2.96496L3.75985 2.95782C3.75898 2.9149 3.76735 2.90312 3.76407 2.9094C3.76236 2.91268 3.75835 2.91901 3.75099 2.92614C3.74359 2.9333 3.73486 2.93926 3.7258 2.94349C3.70718 2.95218 3.69743 2.94924 3.70459 2.95025C3.70816 2.95075 3.71528 2.95221 3.72573 2.95623C3.73615 2.96024 3.74931 2.96658 3.76463 2.97629L3.95193 2.68061ZM3.40993 2.96496L3.05993 2.96598L3.07077 6.70553L3.42077 6.70451L3.77077 6.7035L3.75992 2.96395L3.40993 2.96496ZM3.42077 6.70451L3.07139 6.72531C3.08542 6.96101 3.16569 7.2413 3.42503 7.37982C3.68076 7.51639 3.95544 7.43122 4.15212 7.32237L3.98264 7.01614L3.81317 6.70991C3.78654 6.72465 3.76463 6.73441 3.74745 6.74067C3.73021 6.74695 3.71942 6.74909 3.71458 6.74976C3.70989 6.75041 3.71246 6.74946 3.7206 6.75066C3.72923 6.75192 3.74147 6.75524 3.7548 6.76236C3.76819 6.76951 3.77816 6.77808 3.78459 6.78526C3.79068 6.79205 3.79169 6.79542 3.78993 6.79169C3.7881 6.78777 3.78401 6.77768 3.7799 6.75927C3.7758 6.74091 3.77207 6.71606 3.77015 6.68371L3.42077 6.70451ZM3.98264 7.01614L4.18324 7.30295L6.73787 5.51624L6.53728 5.22943L6.33668 4.94262L3.78204 6.72933L3.98264 7.01614Z" fill="black"/>
</svg>
