<svg width="77" height="14" viewBox="0 0 77 14" fill="none" xmlns="http://www.w3.org/2000/svg">
<g clip-path="url(#clip0_326_2805)">
<path d="M64.8052 0.94686C65.5642 0.397343 66.5388 0.211353 67.4702 0.278986C68.255 0.355073 69.0054 0.735507 69.5229 1.31884C70.1611 2.0628 70.4457 3.06884 70.3163 4.03261C70.1956 4.86957 69.8075 5.67271 69.1606 6.23913C69.6609 6.71256 70.1611 7.21135 70.7993 7.5157C71.1012 7.66787 71.4289 7.76087 71.7652 7.80314C71.4979 8.00604 71.2046 8.18357 70.8855 8.30193C70.4026 8.46256 69.8592 8.47947 69.3849 8.29348C68.6432 8.01449 68.0394 7.49034 67.4357 6.99155C67.3495 6.907 67.2115 6.95773 67.108 6.95773C66.2283 7.10145 65.2968 6.80556 64.6414 6.23068C63.9514 5.63889 63.5547 4.75121 63.4857 3.86353C63.3477 2.74758 63.8738 1.58937 64.8052 0.94686ZM66.3749 1.28502C65.9868 1.39493 65.7022 1.71618 65.5556 2.07126C65.3831 2.49396 65.34 2.96739 65.3486 3.41546C65.34 3.8128 65.4176 4.21014 65.5556 4.58213C65.6849 4.98792 65.8919 5.38527 66.211 5.68116C66.6164 6.05314 67.2632 6.11232 67.7376 5.85024C68.0739 5.66425 68.2464 5.30072 68.3499 4.95411C68.5138 4.39614 68.4793 3.80435 68.4103 3.23792C68.324 2.76449 68.2033 2.28261 67.9359 1.87681C67.6168 1.37802 66.9527 1.13285 66.3749 1.28502Z" fill="white"/>
<path d="M0.301758 0.355072C1.73343 0.355072 3.16511 0.355072 4.59678 0.355072C5.7956 3.58454 6.98579 6.81401 8.1846 10.0435C9.19367 7.38889 10.2114 4.74275 11.2204 2.08816C11.2894 1.90217 11.2894 1.68237 11.2032 1.49638C11.0221 1.10749 10.8151 0.735507 10.6081 0.37198C11.6775 0.37198 12.747 0.37198 13.8164 0.37198C13.6526 0.955314 13.4283 1.52174 13.23 2.09662C11.8155 5.96014 10.3925 9.82367 8.96943 13.6872C7.75337 13.4589 6.53731 13.0024 5.60586 12.1739C5.13151 11.7597 4.80377 11.2186 4.56229 10.6522C4.30355 10.035 4.06206 9.41787 3.80333 8.80072C2.78563 6.26449 1.75931 3.72826 0.732985 1.19203C0.612242 0.904589 0.465624 0.625603 0.301758 0.355072Z" fill="white"/>
<path d="M14.2822 0.355072C15.6794 0.355072 17.068 0.355072 18.4651 0.355072C20.7248 3.07729 22.9758 5.80797 25.2354 8.53865C25.2354 6.43357 25.2354 4.32005 25.2354 2.21498C25.2354 1.98671 25.2527 1.73309 25.1233 1.53019C24.8732 1.13285 24.5886 0.752415 24.3126 0.37198C25.658 0.37198 27.0034 0.37198 28.3402 0.37198C28.0211 0.769323 27.702 1.16667 27.3743 1.56401C27.2794 1.67391 27.2536 1.81763 27.2536 1.9529C27.2536 5.88406 27.2536 9.80676 27.2536 13.7379C26.4256 13.628 25.5804 13.4674 24.8214 13.1039C24.1401 12.7826 23.545 12.2838 23.062 11.7089C21.1819 9.43478 19.3017 7.16063 17.4129 4.89493C17.4129 7.2029 17.4129 9.51087 17.4129 11.8188C17.4043 11.971 17.4561 12.1147 17.5596 12.2246C17.8787 12.6135 18.1978 13.0109 18.5169 13.4082C17.1715 13.4082 15.826 13.4082 14.4892 13.4082C14.7048 13.0785 14.9291 12.7572 15.1619 12.4444C15.2999 12.25 15.4207 12.0217 15.412 11.7766C15.412 9.78986 15.412 7.79469 15.412 5.80797C15.4034 4.56522 15.4207 3.32246 15.4034 2.08816C15.0498 1.49638 14.6531 0.938405 14.2822 0.355072Z" fill="white"/>
<path d="M70.5575 0.41425C71.6269 0.41425 72.705 0.41425 73.7744 0.41425C74.2229 0.405796 74.6972 0.507245 75.0681 0.769322C75.5683 1.11594 75.8098 1.75845 75.7236 2.34179C75.6546 2.69686 75.4907 3.03502 75.2147 3.28019C75.025 3.44927 74.8007 3.57609 74.5765 3.69444C74.9991 4.39613 75.4303 5.10628 75.8529 5.80797C76.0944 6.1715 76.3618 6.52657 76.6895 6.81401C76.0858 6.84782 75.4734 6.93237 74.8697 6.89855C74.6196 6.89009 74.3523 6.7971 74.2056 6.5942C74.0073 6.34058 73.8865 6.04468 73.7227 5.77415C73.4208 5.21618 73.1189 4.65821 72.8171 4.10869C72.8171 4.69203 72.8171 5.27536 72.8171 5.86715C72.8171 6.10386 72.843 6.35749 72.9723 6.56884C73.0413 6.69565 73.1621 6.78019 73.2742 6.87319C72.3686 6.88164 71.4544 6.88164 70.5488 6.87319C70.6523 6.78019 70.7731 6.69565 70.8421 6.57729C70.9542 6.37439 70.9887 6.13768 70.9887 5.91787C70.9887 4.60749 70.9887 3.2971 70.9887 1.97826C70.9801 1.61473 71.0146 1.24275 70.9197 0.88768C70.8593 0.676327 70.7041 0.541061 70.5575 0.41425ZM72.8171 1.3442C72.8171 2.08816 72.8171 2.83212 72.8171 3.57609C73.0672 3.52536 73.3173 3.43237 73.507 3.25483C73.9555 2.84903 74.0245 2.11353 73.645 1.6401C73.4553 1.40338 73.1189 1.33575 72.8171 1.3442Z" fill="white"/>
<path d="M29.0732 0.422702C29.746 0.39734 30.4187 0.422702 31.0828 0.414248C32.4541 0.414248 33.8254 0.414248 35.1967 0.414248C36.0591 0.431157 36.9475 0.54106 37.7064 0.963765C38.2498 1.26811 38.7586 1.68236 39.0518 2.23188C39.4227 2.94203 39.5693 3.76207 39.4486 4.54831C39.3623 5.30918 39.0173 6.04468 38.4481 6.56884C37.7323 7.23671 36.7663 7.57488 35.8176 7.76087C35.4468 7.80314 35.0846 7.8285 34.7137 7.86232C34.3946 7.90459 34.0755 7.81159 33.7477 7.80314C34.386 7.54951 34.9724 7.12681 35.3174 6.53502C35.7228 5.85024 35.7831 5.02174 35.6969 4.25241C35.6279 3.71135 35.4468 3.14492 35.0156 2.77294C34.6361 2.44323 34.11 2.33333 33.6184 2.32488C33.6098 4.81038 33.6184 7.29589 33.6184 9.78985C33.6184 10.2717 33.6098 10.7536 33.627 11.227C33.6615 11.8865 33.8254 12.5882 34.2997 13.087C34.386 13.1884 34.524 13.256 34.5671 13.3828C32.7387 13.3828 30.9103 13.3913 29.0819 13.3828C29.2457 13.2391 29.4182 13.1123 29.5476 12.9432C29.8753 12.5121 29.9788 11.9541 29.9788 11.4299C29.9788 8.47101 29.9788 5.51207 29.9788 2.56159C29.9788 2.13889 29.9616 1.70773 29.815 1.30193C29.6683 0.938403 29.3665 0.667872 29.0732 0.422702Z" fill="white"/>
<path d="M41.7512 0.4227C43.4157 0.405791 45.0802 0.4227 46.7448 0.414246C48.0471 3.79589 49.3494 7.18598 50.6517 10.5676C50.8932 11.2186 51.1174 11.8865 51.5573 12.4444C51.7729 12.7319 52.0316 12.9855 52.299 13.2307C52.3507 13.2729 52.3852 13.3237 52.4025 13.3913C50.3326 13.3998 48.2713 13.3913 46.2014 13.3913C46.2014 13.3744 46.2014 13.3321 46.2014 13.3152C46.555 13.1208 46.9173 12.8333 47.0121 12.4191C47.107 11.9541 46.9345 11.4891 46.7879 11.058C46.6068 10.5254 46.4257 10.0012 46.2446 9.46859C44.8905 9.46859 43.5451 9.46859 42.191 9.46859C42.0358 9.90821 41.8719 10.3394 41.7167 10.779C41.5442 11.244 41.3889 11.7174 41.3199 12.2162C41.3027 12.5882 41.5701 12.901 41.8374 13.1377C41.915 13.2222 42.0444 13.2729 42.0703 13.3913C40.6731 13.3913 39.2673 13.3913 37.8701 13.3913C37.896 13.2983 37.9736 13.2391 38.0426 13.1799C38.3876 12.8756 38.6808 12.5121 38.8792 12.0978C39.1379 11.5399 39.3277 10.965 39.526 10.3901C40.4144 7.91304 41.3027 5.44444 42.1996 2.96739C42.3635 2.50241 42.536 2.02053 42.5274 1.52173C42.4929 1.03985 42.1134 0.693231 41.7512 0.4227ZM44.1402 3.68598C43.6831 4.99637 43.2346 6.30676 42.7775 7.61714C43.7089 7.61714 44.6404 7.61714 45.5718 7.61714C45.0889 6.30676 44.6145 4.99637 44.1402 3.68598Z" fill="white"/>
<path d="M49.4268 0.431153C51.0827 0.414245 52.73 0.431153 54.3859 0.422699C55.3949 1.98671 56.3954 3.55072 57.4045 5.11473C57.9651 4.3285 58.5343 3.54226 59.1035 2.74758C59.2932 2.47705 59.4312 2.1727 59.5261 1.8599C59.6124 1.564 59.6296 1.23429 59.4657 0.963762C59.3277 0.718593 59.0863 0.574873 58.862 0.431153C60.4317 0.414245 62.0014 0.431153 63.571 0.422699C61.9065 2.75603 60.2419 5.08937 58.5688 7.4227C58.5343 7.46497 58.5084 7.52415 58.517 7.57487C58.517 8.32729 58.517 9.07125 58.517 9.82366C58.517 10.4239 58.4998 11.0326 58.5688 11.6328C58.655 12.1316 58.793 12.6473 59.1639 13.0193C59.2587 13.1461 59.4226 13.2222 59.4744 13.3744C57.5856 13.3744 55.6968 13.3828 53.808 13.3744C53.8339 13.2814 53.9288 13.2476 54.0064 13.1884C54.3255 12.977 54.5239 12.6304 54.6187 12.2669C54.7481 11.7766 54.705 11.2609 54.7136 10.7621C54.705 9.67149 54.7222 8.57246 54.705 7.48188C53.5234 5.73188 52.316 3.99879 51.1172 2.25724C50.8326 1.83453 50.5393 1.41183 50.1943 1.03139C49.9701 0.803134 49.6855 0.625598 49.4268 0.431153Z" fill="white"/>
</g>
<defs>
<clipPath id="clip0_326_2805">
<rect width="77" height="14" fill="white"/>
</clipPath>
</defs>
</svg>
