<svg width="33" height="33" viewBox="0 0 33 33" fill="none" xmlns="http://www.w3.org/2000/svg">
<g clip-path="url(#clip0_440_3339)">
<path d="M25.5348 -3.8147e-05H7.35638C3.29357 -3.8147e-05 0 3.29353 0 7.35635V25.5348C0 29.5976 3.29357 32.8911 7.35638 32.8911H25.5348C29.5976 32.8911 32.8912 29.5976 32.8912 25.5348V7.35635C32.8912 3.29353 29.5976 -3.8147e-05 25.5348 -3.8147e-05Z" fill="white"/>
<path d="M10.6998 8.5962C10.7915 8.47371 10.8473 8.32803 10.8608 8.17557C10.8743 8.02311 10.8449 7.86991 10.776 7.73322C10.7072 7.59654 10.6015 7.4818 10.4709 7.40192C10.3404 7.32203 10.1901 7.28019 10.037 7.28108H4.49023V8.88254H8.48281L4.67473 13.96C4.58326 14.0821 4.52755 14.2272 4.51385 14.3791C4.50015 14.5311 4.529 14.6838 4.59716 14.8203C4.66532 14.9568 4.77011 15.0716 4.89981 15.1519C5.02951 15.2322 5.179 15.2749 5.33155 15.2751H10.8828V13.6736H6.89759L10.6998 8.5962Z" fill="#0033C9"/>
<path d="M25.2039 8.87811C24.5712 8.87782 23.9527 9.06516 23.4265 9.41643C22.9003 9.76771 22.4901 10.2671 22.2478 10.8516C22.0055 11.436 21.9419 12.0791 22.0652 12.6997C22.1884 13.3202 22.4929 13.8903 22.9402 14.3378C23.3875 14.7852 23.9574 15.09 24.5779 15.2135C25.1983 15.3371 25.8415 15.2738 26.4261 15.0318C27.0106 14.7897 27.5102 14.3798 27.8617 13.8537C28.2133 13.3277 28.4009 12.7093 28.4009 12.0766C28.4001 11.2288 28.0631 10.4159 27.4637 9.81631C26.8644 9.21669 26.0517 8.87928 25.2039 8.87811ZM25.2039 13.6736C24.8879 13.6739 24.579 13.5805 24.3162 13.4052C24.0534 13.2299 23.8485 12.9806 23.7274 12.6888C23.6063 12.397 23.5744 12.0758 23.6359 11.7659C23.6973 11.456 23.8493 11.1713 24.0726 10.9479C24.2959 10.7244 24.5805 10.5721 24.8903 10.5104C25.2001 10.4486 25.5213 10.4802 25.8132 10.601C26.1051 10.7218 26.3546 10.9265 26.5302 11.1892C26.7057 11.4518 26.7994 11.7607 26.7994 12.0766C26.799 12.4998 26.6309 12.9055 26.3318 13.2049C26.0327 13.5043 25.6271 13.6729 25.2039 13.6736Z" fill="#0033C9"/>
<path d="M7.68775 17.6765C6.8397 17.6773 6.0266 18.0146 5.42694 18.6142C4.82727 19.2139 4.49004 20.027 4.48926 20.875V26.4676H6.09072V23.6411C6.51526 23.8856 6.99035 24.0293 7.47927 24.0609C7.96818 24.0926 8.45784 24.0114 8.91037 23.8237C9.36291 23.6359 9.76622 23.3466 10.0891 22.9781C10.412 22.6097 10.6459 22.1719 10.7726 21.6986C10.8993 21.2253 10.9155 20.7293 10.8199 20.2487C10.7244 19.7682 10.5196 19.3161 10.2214 18.9273C9.92323 18.5386 9.53965 18.2236 9.10033 18.0067C8.661 17.7898 8.17769 17.6768 7.68775 17.6765ZM7.68775 22.4706C7.37176 22.4709 7.06279 22.3774 6.79993 22.2021C6.53707 22.0267 6.33215 21.7773 6.21109 21.4854C6.09003 21.1935 6.05828 20.8723 6.11986 20.5624C6.18143 20.2524 6.33356 19.9677 6.557 19.7443C6.78044 19.5209 7.06514 19.3687 7.37507 19.3071C7.685 19.2456 8.00623 19.2773 8.29811 19.3984C8.58999 19.5194 8.8394 19.7244 9.01477 19.9872C9.19014 20.2501 9.2836 20.559 9.28331 20.875C9.28253 21.298 9.11417 21.7033 8.81512 22.0024C8.51606 22.3015 8.11068 22.4698 7.68775 22.4706Z" fill="#00CF6A"/>
<path d="M23.5294 17.678L21.8261 21.6514L20.2084 17.678H18.4785L20.939 23.7222L19.7626 26.4676H21.5058L25.2711 17.678H23.5294Z" fill="#00CF6A"/>
<path d="M17.872 13.6722V8.87811H16.2691V9.46851C15.7649 9.09562 15.1545 8.8939 14.5274 8.89287C12.8418 8.88696 11.4824 10.3172 11.4824 12.0796C11.4824 13.8419 12.8418 15.2736 14.5274 15.2736C15.2894 15.2709 16.0208 14.9737 16.5687 14.4441C16.7357 14.6989 16.9634 14.9083 17.2314 15.0533C17.4993 15.1984 17.7991 15.2746 18.1038 15.2751H18.6705V13.6722H17.872ZM14.6765 13.6722C14.3611 13.6724 14.0528 13.5792 13.7905 13.4042C13.5281 13.2292 13.3236 12.9804 13.2027 12.6891C13.0818 12.3979 13.05 12.0773 13.1114 11.768C13.1727 11.4587 13.3244 11.1745 13.5473 10.9514C13.7702 10.7283 14.0542 10.5764 14.3635 10.5147C14.6727 10.4531 14.9933 10.4846 15.2847 10.6052C15.5761 10.7258 15.8251 10.9301 16.0003 11.1923C16.1756 11.4545 16.2691 11.7627 16.2691 12.0781C16.2693 12.2874 16.2282 12.4947 16.1483 12.6882C16.0684 12.8817 15.9511 13.0575 15.8032 13.2057C15.6554 13.3539 15.4797 13.4714 15.2864 13.5517C15.0931 13.632 14.8858 13.6734 14.6765 13.6736V13.6722Z" fill="#0033C9"/>
<path d="M17.872 22.4721V17.678H16.2691V18.2684C15.7653 17.8944 15.1548 17.6921 14.5274 17.6913C12.8462 17.6913 11.4824 19.1215 11.4824 20.8854C11.4824 22.6492 12.8418 24.0721 14.5274 24.0721C15.2894 24.0694 16.0208 23.7721 16.5687 23.2425C16.7353 23.4977 16.963 23.7074 17.231 23.8525C17.499 23.9976 17.799 24.0735 18.1038 24.0735H18.6705V22.4721H17.872ZM14.6765 22.4721C14.3615 22.4721 14.0536 22.3787 13.7917 22.2037C13.5298 22.0287 13.3257 21.7799 13.2051 21.4889C13.0846 21.1979 13.053 20.8777 13.1145 20.5688C13.1759 20.2598 13.3276 19.9761 13.5503 19.7533C13.7731 19.5306 14.0568 19.3789 14.3658 19.3175C14.6747 19.256 14.9949 19.2875 15.2859 19.4081C15.577 19.5286 15.8257 19.7328 16.0007 19.9947C16.1757 20.2566 16.2691 20.5645 16.2691 20.8795C16.2691 21.3019 16.1013 21.7069 15.8026 22.0056C15.504 22.3043 15.0989 22.4721 14.6765 22.4721Z" fill="#00CF6A"/>
<path d="M20.8813 13.6722V7.28108H19.2754V13.4316C19.2746 13.6728 19.3214 13.9119 19.413 14.135C19.5047 14.3582 19.6394 14.5611 19.8095 14.7322C19.9796 14.9032 20.1818 15.0391 20.4044 15.132C20.6271 15.2249 20.8659 15.273 21.1071 15.2736H21.6798V13.6722H20.8813Z" fill="#0033C9"/>
</g>
<defs>
<clipPath id="clip0_440_3339">
<rect width="32.8912" height="32.8912" fill="white"/>
</clipPath>
</defs>
</svg>
